<svg id="Calque_1" data-name="Calque 1" xmlns="http://www.w3.org/2000/svg" xmlns:xlink="http://www.w3.org/1999/xlink" viewBox="0 0 439.49 171.11"><defs><style>.cls-1{fill:#272460;}.cls-2{fill:none;}.cls-3{fill:url(#Nouvelle_nuance_de_dégradé_3);}.cls-4{fill:url(#Nouvelle_nuance_de_dégradé_3-2);}.cls-5{fill:url(#Nouvelle_nuance_de_dégradé_3-3);}.cls-6{fill:url(#Nouvelle_nuance_de_dégradé_3-4);}.cls-7{fill:url(#Nouvelle_nuance_de_dégradé_3-5);}.cls-8{fill:url(#Nouvelle_nuance_de_dégradé_3-6);}.cls-9{fill:url(#Nouvelle_nuance_de_dégradé_3-7);}.cls-10{fill:url(#Nouvelle_nuance_de_dégradé_3-8);}.cls-11{fill:url(#Nouvelle_nuance_de_dégradé_3-9);}.cls-12{fill:url(#Nouvelle_nuance_de_dégradé_3-10);}.cls-13{fill:url(#Nouvelle_nuance_de_dégradé_3-11);}.cls-14{fill:url(#Nouvelle_nuance_de_dégradé_3-12);}.cls-15{fill:url(#Nouvelle_nuance_de_dégradé_3-13);}.cls-16{fill:url(#Nouvelle_nuance_de_dégradé_3-14);}.cls-17{fill:url(#Nouvelle_nuance_de_dégradé_3-15);}.cls-18{fill:url(#Nouvelle_nuance_de_dégradé_3-16);}.cls-19{fill:url(#Nouvelle_nuance_de_dégradé_3-17);}.cls-20{fill:url(#Nouvelle_nuance_de_dégradé_3-18);}.cls-21{fill:url(#Nouvelle_nuance_de_dégradé_3-19);}.cls-22{fill:url(#Nouvelle_nuance_de_dégradé_3-20);}.cls-23{fill:url(#linear-gradient);}.cls-24{fill:url(#Nouvelle_nuance_de_dégradé_3-21);}.cls-25{fill:url(#Nouvelle_nuance_de_dégradé_3-22);}.cls-26{fill:url(#Nouvelle_nuance_de_dégradé_3-23);}.cls-27{fill:url(#Nouvelle_nuance_de_dégradé_3-24);}.cls-28{fill:url(#Nouvelle_nuance_de_dégradé_3-25);}.cls-29{fill:#00ab52;}</style><linearGradient id="Nouvelle_nuance_de_dégradé_3" x1="340.73" y1="81.21" x2="332.41" y2="125.55" gradientUnits="userSpaceOnUse"><stop offset="0" stop-color="#b8d242"/><stop offset="0.03" stop-color="#afd043"/><stop offset="0.29" stop-color="#72c348"/><stop offset="0.52" stop-color="#41b94c"/><stop offset="0.73" stop-color="#1db14f"/><stop offset="0.89" stop-color="#08ad51"/><stop offset="1" stop-color="#00ab52"/></linearGradient><linearGradient id="Nouvelle_nuance_de_dégradé_3-2" x1="395.11" y1="87.26" x2="278.71" y2="156.54" xlink:href="#Nouvelle_nuance_de_dégradé_3"/><linearGradient id="Nouvelle_nuance_de_dégradé_3-3" x1="488.49" y1="49.4" x2="488.48" y2="49.41" xlink:href="#Nouvelle_nuance_de_dégradé_3"/><linearGradient id="Nouvelle_nuance_de_dégradé_3-4" x1="336.13" y1="117.2" x2="300.1" y2="150.45" xlink:href="#Nouvelle_nuance_de_dégradé_3"/><linearGradient id="Nouvelle_nuance_de_dégradé_3-5" x1="433.16" y1="86.96" x2="330.62" y2="151.4" xlink:href="#Nouvelle_nuance_de_dégradé_3"/><linearGradient id="Nouvelle_nuance_de_dégradé_3-6" x1="439.48" y1="0" x2="439.48" y2="0.01" xlink:href="#Nouvelle_nuance_de_dégradé_3"/><linearGradient id="Nouvelle_nuance_de_dégradé_3-7" x1="400.3" y1="95.98" x2="283.9" y2="165.26" xlink:href="#Nouvelle_nuance_de_dégradé_3"/><linearGradient id="Nouvelle_nuance_de_dégradé_3-8" x1="428.24" y1="79.13" x2="325.69" y2="143.57" xlink:href="#Nouvelle_nuance_de_dégradé_3"/><linearGradient id="Nouvelle_nuance_de_dégradé_3-9" x1="465" y1="120.89" x2="341.12" y2="138.73" xlink:href="#Nouvelle_nuance_de_dégradé_3"/><linearGradient id="Nouvelle_nuance_de_dégradé_3-10" x1="338.1" y1="119.21" x2="301.99" y2="152.55" xlink:href="#Nouvelle_nuance_de_dégradé_3"/><linearGradient id="Nouvelle_nuance_de_dégradé_3-11" x1="465.13" y1="120.02" x2="341.05" y2="137.9" xlink:href="#Nouvelle_nuance_de_dégradé_3"/><linearGradient id="Nouvelle_nuance_de_dégradé_3-12" x1="409.31" y1="80.01" x2="353.19" y2="172.85" xlink:href="#Nouvelle_nuance_de_dégradé_3"/><linearGradient id="Nouvelle_nuance_de_dégradé_3-13" x1="429.9" y1="92.46" x2="373.78" y2="185.3" xlink:href="#Nouvelle_nuance_de_dégradé_3"/><linearGradient id="Nouvelle_nuance_de_dégradé_3-14" x1="435.31" y1="90.39" x2="332.77" y2="154.82" xlink:href="#Nouvelle_nuance_de_dégradé_3"/><linearGradient id="Nouvelle_nuance_de_dégradé_3-15" x1="418.21" y1="85.39" x2="362.09" y2="178.24" xlink:href="#Nouvelle_nuance_de_dégradé_3"/><linearGradient id="Nouvelle_nuance_de_dégradé_3-16" x1="475.66" y1="71.22" x2="416.07" y2="158.52" xlink:href="#Nouvelle_nuance_de_dégradé_3"/><linearGradient id="Nouvelle_nuance_de_dégradé_3-17" x1="439.48" y1="0" x2="439.48" y2="0" xlink:href="#Nouvelle_nuance_de_dégradé_3"/><linearGradient id="Nouvelle_nuance_de_dégradé_3-18" x1="488.48" y1="49.41" x2="488.48" y2="49.41" gradientTransform="translate(178.01 -330.94) rotate(45)" xlink:href="#Nouvelle_nuance_de_dégradé_3"/><linearGradient id="Nouvelle_nuance_de_dégradé_3-19" x1="488.48" y1="49.41" x2="488.48" y2="49.41" gradientTransform="translate(178.01 -330.94) rotate(45)" xlink:href="#Nouvelle_nuance_de_dégradé_3"/><linearGradient id="Nouvelle_nuance_de_dégradé_3-20" x1="486.16" y1="96.85" x2="364.57" y2="184.15" xlink:href="#Nouvelle_nuance_de_dégradé_3"/><linearGradient id="linear-gradient" x1="492.24" y1="105.3" x2="370.64" y2="192.61" xlink:href="#Nouvelle_nuance_de_dégradé_3"/><linearGradient id="Nouvelle_nuance_de_dégradé_3-21" x1="488.93" y1="100.68" x2="367.32" y2="187.99" xlink:href="#Nouvelle_nuance_de_dégradé_3"/><linearGradient id="Nouvelle_nuance_de_dégradé_3-22" x1="441.74" y1="100.62" x2="339" y2="165.19" xlink:href="#Nouvelle_nuance_de_dégradé_3"/><linearGradient id="Nouvelle_nuance_de_dégradé_3-23" x1="472.93" y1="78.25" x2="351.03" y2="165.76" xlink:href="#Nouvelle_nuance_de_dégradé_3"/><linearGradient id="Nouvelle_nuance_de_dégradé_3-24" x1="475.65" y1="71.21" x2="416.06" y2="158.52" xlink:href="#Nouvelle_nuance_de_dégradé_3"/><linearGradient id="Nouvelle_nuance_de_dégradé_3-25" x1="476.46" y1="83.34" x2="354.86" y2="170.64" xlink:href="#Nouvelle_nuance_de_dégradé_3"/></defs><title>ALT_logo_formation</title><path class="cls-1" d="M74.87,116.8H87.12L113,177.61H99.11l-5.52-13.54H68.06l-5.52,13.54H49Zm14,35.54-8-19.58-8,19.58h16Z" transform="translate(-49 -49.4)"/><path class="cls-1" d="M117.14,114.64h13.11v63H117.14v-63Z" transform="translate(-49 -49.4)"/><path class="cls-1" d="M142.88,164.5V142.59h-5.52V131.38h5.52V119.56H156v11.82h10.87v11.21H156v19.75c0,3,1.29,4.49,4.23,4.49a13.29,13.29,0,0,0,6.47-1.64v10.53a19.33,19.33,0,0,1-10.35,2.67C148.32,178.38,142.88,175.19,142.88,164.5Z" transform="translate(-49 -49.4)"/><path class="cls-1" d="M171.69,154.75v-0.17c0-13.2,9.4-24.06,22.86-24.06,15.44,0,22.51,12,22.51,25.1,0,1-.09,2.24-0.17,3.45H184.72c1.29,6,5.43,9.05,11.3,9.05,4.4,0,7.59-1.38,11.21-4.74l7.5,6.64c-4.31,5.35-10.52,8.63-18.89,8.63C182,178.64,171.69,168.9,171.69,154.75Zm32.6-3.88c-0.78-5.87-4.23-9.83-9.75-9.83s-9,3.88-10,9.83H204.3Z" transform="translate(-49 -49.4)"/><path class="cls-1" d="M224.71,131.38h13.11v9.31c2.67-6.38,7-10.52,14.75-10.18v13.71h-0.69c-8.71,0-14.06,5.26-14.06,16.3v17.08H224.71V131.38Z" transform="translate(-49 -49.4)"/><path class="cls-1" d="M294.92,171.74a27.2,27.2,0,0,1-17.68,6.73c-11.56,0-20.27-6.73-20.27-17.42v-0.17c0-7.68,4.14-13.11,11.73-16.56-2.93-4.14-4.23-7.93-4.23-12.07v-0.17c0-8.28,6.64-15.87,18.29-15.87,10.26,0,17,6.73,17,15.18v0.17c0,8.11-5.17,12.85-12.68,15.78l8,8c2-3.1,4-6.64,5.87-10.35l9.74,5.35a112,112,0,0,1-7.93,12.76l8.88,8.88-9.74,6.81Zm-7.42-7.59-11.56-11.73c-4,2.07-5.61,5-5.61,7.94v0.17c0,4.23,3.54,7.07,8.45,7.07A14.29,14.29,0,0,0,287.5,164.15Zm0.69-31.83v-0.17a5.32,5.32,0,0,0-5.69-5.61c-3.54,0-5.87,2.5-5.87,6.12v0.17c0,2.67,1,4.66,3.54,7.5C285.43,138.36,288.19,136.12,288.19,132.33Z" transform="translate(-49 -49.4)"/><path class="cls-2" d="M413.11,133h0c8.11-9.27,17.64-20,28.76-32.45h0C430.74,112.94,421.21,123.72,413.11,133Z" transform="translate(-49 -49.4)"/><path class="cls-2" d="M390.46,159.28h0c4-4.7,8.81-10.36,14.55-17h0C399.26,148.93,394.44,154.58,390.46,159.28Z" transform="translate(-49 -49.4)"/><path class="cls-3" d="M343.62,116.23l18.56-27.09-48.76,15.34v29.82l3-.78A31,31,0,0,1,343.62,116.23Z" transform="translate(-49 -49.4)"/><path class="cls-4" d="M344.86,116.2a43.16,43.16,0,0,1,9.82,1c30.49-17.38,76.55-42,133.79-67.81L362.18,89.13l-18.56,27.09C344,116.21,344.44,116.2,344.86,116.2Z" transform="translate(-49 -49.4)"/><path class="cls-5" d="M488.49,49.4h0Z" transform="translate(-49 -49.4)"/><path class="cls-6" d="M313.71,141.76a31.12,31.12,0,0,1,2.68-8.26l-3,.78V142h0Z" transform="translate(-49 -49.4)"/><path class="cls-7" d="M363.87,121l78-20.5,0,0h0l0,0h0c13.22-14.74,28.66-31.72,46.53-51.09-57.24,25.76-103.31,50.43-133.79,67.81A30,30,0,0,1,363.87,121Z" transform="translate(-49 -49.4)"/><polygon class="cls-8" points="439.48 0 439.48 0.01 439.48 0.01 439.48 0"/><path class="cls-9" d="M354.69,117.22c30.48-17.38,76.55-42,133.79-67.81h0c-57.25,25.76-103.31,50.43-133.79,67.81h0Z" transform="translate(-49 -49.4)"/><path class="cls-10" d="M354.69,117.22c30.48-17.38,76.55-42,133.79-67.81h0c-57.25,25.76-103.31,50.43-133.79,67.81h0Z" transform="translate(-49 -49.4)"/><path class="cls-11" d="M313.44,141.95v1.68q0.11-.94.28-1.85Z" transform="translate(-49 -49.4)"/><path class="cls-12" d="M313.71,141.76l-0.28.18h0l0.28-.18h0Z" transform="translate(-49 -49.4)"/><path class="cls-13" d="M313.71,141.76l-0.28.18h0l0.28-.18h0Z" transform="translate(-49 -49.4)"/><path class="cls-14" d="M376.7,154.58c0-13.28,10.7-24.06,25.1-24.06A26.42,26.42,0,0,1,413.11,133c8.1-9.27,17.63-20,28.75-32.44L363.9,121a39.62,39.62,0,0,1,4.68,3.45l-8.37,10.09c-4.66-3.88-8.8-6.12-15.78-6.12-9.66,0-17.34,8.54-17.34,18.8v0.17c0,11,7.59,19.15,18.28,19.15a21.2,21.2,0,0,0,12.51-3.62v-8.63H344.52V142.85h26.22v26.22a40,40,0,0,1-15.7,8.28h20.45s2-2.55,6.37-7.81a23.44,23.44,0,0,1-5.16-14.79v-0.17Z" transform="translate(-49 -49.4)"/><path class="cls-15" d="M401.62,141.81c-7.5,0-12,5.78-12,12.59v0.17a13.74,13.74,0,0,0,.83,4.7c4-4.7,8.8-10.35,14.55-17A12.21,12.21,0,0,0,401.62,141.81Z" transform="translate(-49 -49.4)"/><path class="cls-16" d="M363.87,121l0,0,78-20.48,0,0Z" transform="translate(-49 -49.4)"/><path class="cls-17" d="M363.87,121l0,0,78-20.48,0,0Z" transform="translate(-49 -49.4)"/><path class="cls-18" d="M488.48,49.41h0c-17.87,19.36-33.31,36.35-46.53,51.09l33.44-8.78v0h0Z" transform="translate(-49 -49.4)"/><polygon class="cls-19" points="439.48 0.01 439.48 0 439.48 0 439.48 0.01"/><circle class="cls-20" cx="488.48" cy="49.41" transform="translate(59.14 310.48) rotate(-45)"/><circle class="cls-21" cx="488.48" cy="49.41" transform="translate(59.14 310.48) rotate(-45)"/><path class="cls-22" d="M401.79,167.34c7.5,0,12-5.78,12-12.59v-0.17A12.5,12.5,0,0,0,405,142.29c-5.75,6.64-10.58,12.29-14.55,17A11.89,11.89,0,0,0,401.79,167.34Z" transform="translate(-49 -49.4)"/><path class="cls-23" d="M441.87,100.54c-11.12,12.4-20.65,23.18-28.76,32.45a23.47,23.47,0,0,1,13.6,21.42v0.17a23.82,23.82,0,0,1-16.78,22.77h38.94l26.49-85.6-33.46,8.79h0Z" transform="translate(-49 -49.4)"/><path class="cls-24" d="M381.86,169.55c-4.34,5.25-6.36,7.8-6.36,7.8h17.79A24.13,24.13,0,0,1,381.86,169.55Z" transform="translate(-49 -49.4)"/><path class="cls-25" d="M441.87,100.54h0l0,0h0Z" transform="translate(-49 -49.4)"/><path class="cls-26" d="M441.87,100.54h0l0,0h0Z" transform="translate(-49 -49.4)"/><path class="cls-27" d="M441.94,100.5l0,0,33.46-8.79v0Z" transform="translate(-49 -49.4)"/><path class="cls-28" d="M441.94,100.5l0,0,33.46-8.79v0Z" transform="translate(-49 -49.4)"/><path class="cls-29" d="M175.34,194.88h18.75v4H179.77v6.88h12.71v4H179.77v10.26h-4.43v-25.2Z" transform="translate(-49 -49.4)"/><path class="cls-29" d="M203.58,207.56v-0.07a13.18,13.18,0,0,1,26.35-.07v0.07A13.18,13.18,0,0,1,203.58,207.56Zm21.71,0v-0.07c0-4.9-3.56-9-8.57-9s-8.5,4-8.5,8.89v0.07c0,4.9,3.56,9,8.57,9S225.29,212.45,225.29,207.56Z" transform="translate(-49 -49.4)"/><path class="cls-29" d="M241.88,194.88h11.23a10.15,10.15,0,0,1,7.27,2.52,7.61,7.61,0,0,1,2.09,5.43v0.07c0,4.14-2.48,6.62-6,7.63l6.8,9.54H258l-6.19-8.78h-5.54v8.78h-4.43v-25.2Zm10.91,12.49c3.17,0,5.18-1.66,5.18-4.21v-0.07c0-2.7-1.94-4.17-5.22-4.17h-6.44v8.46h6.48Z" transform="translate(-49 -49.4)"/><path class="cls-29" d="M274.52,194.88h4.72l7.67,11.91,7.67-11.91h4.72v25.2h-4.43V202l-8,11.88h-0.14l-7.88-11.81v18h-4.36v-25.2Z" transform="translate(-49 -49.4)"/><path class="cls-29" d="M321,194.71h4.1l11.09,25.38h-4.68L329,214H317l-2.59,6.08h-4.54Zm6.34,15.37L323,200l-4.32,10.08h8.67Z" transform="translate(-49 -49.4)"/><path class="cls-29" d="M349.77,199h-8v-4.1h20.45V199h-8v21.09h-4.46V199Z" transform="translate(-49 -49.4)"/><path class="cls-29" d="M373.12,194.88h4.43v25.2h-4.43v-25.2Z" transform="translate(-49 -49.4)"/><path class="cls-29" d="M389.53,207.56v-0.07a13.18,13.18,0,0,1,26.35-.07v0.07A13.18,13.18,0,0,1,389.53,207.56Zm21.71,0v-0.07c0-4.9-3.56-9-8.57-9s-8.49,4-8.49,8.89v0.07c0,4.9,3.56,9,8.57,9S411.23,212.45,411.23,207.56Z" transform="translate(-49 -49.4)"/><path class="cls-29" d="M427.83,194.88h4.1l13.5,17.42V194.88h4.36v25.2h-3.71l-13.89-17.93v17.93h-4.36v-25.2Z" transform="translate(-49 -49.4)"/></svg>